<svg xmlns="http://www.w3.org/2000/svg" xmlns:xlink="http://www.w3.org/1999/xlink" stroke-miterlimit="10" stroke-linecap="square" stroke="none" fill="none" viewBox="200.89084895259097 21.80031496062992 488.9966923925028 391.5590551181102" version="1.1" style="max-height: 500px" width="488.9966923925028" height="391.5590551181102"><clipPath id="p.0"><path clip-rule="nonzero" d="m0 0l960.0 0l0 529.13385l-960.0 0l0 -529.13385z"/></clipPath><g clip-path="url(#p.0)"><path fill-rule="evenodd" d="m0 0l960.0 0l0 529.13385l-960.0 0z" fill="#ffffff"/><defs><linearGradient y2="111.34043771373064" x2="-56.783102178459266" y1="106.45433336078332" x1="-56.78308539187604" spreadMethod="pad" gradientTransform="matrix(0.0 -4.88610435297614 4.88610435297614 0.0 0.0 0.0)" gradientUnits="userSpaceOnUse" id="p.1"><stop stop-color="#bfbfbf" offset="0.0"/><stop stop-color="#10224a" offset="1.4E-45"/><stop stop-color="#ffffff" offset="2.8E-45"/><stop stop-color="#fcf4ed" offset="0.19"/><stop stop-color="#fce2d3" offset="0.52"/><stop stop-color="#f59f6c" offset="1.0"/></linearGradient></defs><path fill-rule="evenodd" d="m521.6693 277.4481l0 0c-0.8407593 0 -1.5223389 -0.6815796 -1.5223389 -1.5223694l0 -6.0891724l0 0c0 -0.40374756 0.16040039 -0.7909546 0.44586182 -1.0764465c0.28552246 -0.28549194 0.6727295 -0.44589233 1.076477 -0.44589233l20.829346 0c0.8407593 0 1.5223389 0.6815796 1.5223389 1.5223389l0 6.0891724c0 0.8407898 -0.6815796 1.5223694 -1.5223389 1.5223694z" fill="url(#p.1)"/><defs><linearGradient y2="80.33055791781898" x2="-38.25260832494422" y1="73.4984860238368" x1="-38.25258431436627" spreadMethod="pad" gradientTransform="matrix(0.0 -6.832071894024363 6.832071894024363 0.0 0.0 0.0)" gradientUnits="userSpaceOnUse" id="p.2"><stop stop-color="#bfbfbf" offset="0.0"/><stop stop-color="#10224a" offset="1.4E-45"/><stop stop-color="#ffffff" offset="2.8E-45"/><stop stop-color="#fcf4ed" offset="0.19"/><stop stop-color="#fce2d3" offset="0.52"/><stop stop-color="#f59f6c" offset="1.0"/></linearGradient></defs><path fill-rule="evenodd" d="m503.6693 261.3444l0 0c-0.8407593 0 -1.5223389 -0.6815796 -1.5223389 -1.5223389l0 -6.0891724l0 0c0 -0.40374756 0.16040039 -0.79096985 0.44589233 -1.0764618c0.28549194 -0.28549194 0.672699 -0.44587708 1.0764465 -0.44587708l43.632507 0c0.8407593 0 1.5223389 0.68156433 1.5223389 1.5223389l0 6.0891724c0 0.8407593 -0.6815796 1.5223389 -1.5223389 1.5223389z" fill="url(#p.2)"/><defs><linearGradient y2="102.09429516363375" x2="-31.785832349023593" y1="95.93882566165793" x1="-31.785809030453766" spreadMethod="pad" gradientTransform="matrix(0.0 -6.155469502019983 6.155469502019983 0.0 0.0 0.0)" gradientUnits="userSpaceOnUse" id="p.3"><stop stop-color="#bfbfbf" offset="0.0"/><stop stop-color="#10224a" offset="1.4E-45"/><stop stop-color="#ffffff" offset="2.8E-45"/><stop stop-color="#fcf4ed" offset="0.19"/><stop stop-color="#fce2d3" offset="0.52"/><stop stop-color="#f59f6c" offset="1.0"/></linearGradient></defs><path fill-rule="evenodd" d="m592.0709 195.65659l0 0c-0.8408203 0 -1.5223389 -0.68156433 -1.5223389 -1.5223389l0 -6.0891724l0 0c0 -0.40374756 0.16033936 -0.79096985 0.44586182 -1.0764618c0.28546143 -0.28549194 0.6727295 -0.44587708 1.076477 -0.44587708l34.84503 0c0.8408203 0 1.5223389 0.6815796 1.5223389 1.5223389l0 6.0891724c0 0.84077454 -0.68151855 1.5223389 -1.5223389 1.5223389z" fill="url(#p.3)"/><defs><linearGradient y2="118.47953688015463" x2="-33.98133192589744" y1="113.15835264727616" x1="-33.98131265833552" spreadMethod="pad" gradientTransform="matrix(0.0 -5.321184232913344 5.321184232913344 0.0 0.0 0.0)" gradientUnits="userSpaceOnUse" id="p.4"><stop stop-color="#bfbfbf" offset="0.0"/><stop stop-color="#10224a" offset="1.4E-45"/><stop stop-color="#ffffff" offset="2.8E-45"/><stop stop-color="#fcf4ed" offset="0.19"/><stop stop-color="#fce2d3" offset="0.52"/><stop stop-color="#f59f6c" offset="1.0"/></linearGradient></defs><path fill-rule="evenodd" d="m603.6588 180.82083l0 0c-0.8407593 0 -1.5223389 -0.68156433 -1.5223389 -1.5223389l0 -6.0891724l0 0c0 -0.40374756 0.16040039 -0.79096985 0.44586182 -1.0764618c0.28552246 -0.28549194 0.6727295 -0.44587708 1.076477 -0.44587708l25.270264 0c0.8408203 0 1.5223389 0.68156433 1.5223389 1.5223389l0 6.0891724c0 0.84077454 -0.68151855 1.5223389 -1.5223389 1.5223389z" fill="url(#p.4)"/><defs><linearGradient y2="76.85566169992775" x2="-19.100227752613463" y1="69.44636768531814" x1="-19.10020146132736" spreadMethod="pad" gradientTransform="matrix(0.0 -7.409294014656269 7.409294014656269 0.0 0.0 0.0)" gradientUnits="userSpaceOnUse" id="p.5"><stop stop-color="#bfbfbf" offset="0.0"/><stop stop-color="#10224a" offset="1.4E-45"/><stop stop-color="#ffffff" offset="2.8E-45"/><stop stop-color="#fcf4ed" offset="0.19"/><stop stop-color="#fce2d3" offset="0.52"/><stop stop-color="#f59f6c" offset="1.0"/></linearGradient></defs><path fill-rule="evenodd" d="m516.0709 141.519l0 0c-0.8408203 0 -1.5223389 -0.68156433 -1.5223389 -1.5223389l0 -6.0891724l0 0c0 -0.40374756 0.16033936 -0.79096985 0.44586182 -1.0764618c0.28546143 -0.28549194 0.6727295 -0.44587708 1.076477 -0.44587708l51.852905 0c0.8408203 0 1.5223389 0.6815796 1.5223389 1.5223389l0 6.0891724c0 0.84077454 -0.68151855 1.5223389 -1.5223389 1.5223389z" fill="url(#p.5)"/><defs><linearGradient y2="88.38460971046409" x2="-18.919209595259193" y1="81.94164051654147" x1="-18.9191857259273" spreadMethod="pad" gradientTransform="matrix(0.0 -6.4429691939668325 6.4429691939668325 0.0 0.0 0.0)" gradientUnits="userSpaceOnUse" id="p.6"><stop stop-color="#bfbfbf" offset="0.0"/><stop stop-color="#10224a" offset="1.4E-45"/><stop stop-color="#ffffff" offset="2.8E-45"/><stop stop-color="#fcf4ed" offset="0.19"/><stop stop-color="#fce2d3" offset="0.52"/><stop stop-color="#f59f6c" offset="1.0"/></linearGradient></defs><path fill-rule="evenodd" d="m529.46985 121.89574l0 0c-0.8407593 0 -1.5223389 -0.6815796 -1.5223389 -1.5223465l0 -6.0891724l0 0c0 -0.4037552 0.16040039 -0.7909622 0.44586182 -1.0764618c0.28552246 -0.28549194 0.6727295 -0.44587708 1.076477 -0.44587708l38.467102 0c0.8408203 0 1.5223389 0.68157196 1.5223389 1.5223389l0 6.0891724c0 0.8407669 -0.68151855 1.5223465 -1.5223389 1.5223465z" fill="url(#p.6)"/><defs><linearGradient y2="77.72129439648984" x2="-15.261990344558386" y1="71.27832520256723" x1="-15.261966475226492" spreadMethod="pad" gradientTransform="matrix(0.0 -6.4429691939668325 6.4429691939668325 0.0 0.0 0.0)" gradientUnits="userSpaceOnUse" id="p.7"><stop stop-color="#bfbfbf" offset="0.0"/><stop stop-color="#10224a" offset="1.4E-45"/><stop stop-color="#ffffff" offset="2.8E-45"/><stop stop-color="#fcf4ed" offset="0.19"/><stop stop-color="#fce2d3" offset="0.52"/><stop stop-color="#f59f6c" offset="1.0"/></linearGradient></defs><path fill-rule="evenodd" d="m460.76645 98.33238l0 0c-0.8407898 0 -1.5223694 -0.6815796 -1.5223694 -1.5223389l0 -6.08918l0 0c0 -0.40374756 0.16040039 -0.7909622 0.44589233 -1.0764618c0.28549194 -0.28549194 0.672699 -0.44587708 1.076477 -0.44587708l38.467102 0c0.8407898 0 1.5223694 0.68157196 1.5223694 1.5223389l0 6.08918c0 0.8407593 -0.6815796 1.5223389 -1.5223694 1.5223389z" fill="url(#p.7)"/><defs><linearGradient y2="76.86296595186333" x2="-12.787918180774858" y1="70.41999675794071" x1="-12.787894311442964" spreadMethod="pad" gradientTransform="matrix(0.0 -6.4429691939668325 6.4429691939668325 0.0 0.0 0.0)" gradientUnits="userSpaceOnUse" id="p.8"><stop stop-color="#bfbfbf" offset="0.0"/><stop stop-color="#10224a" offset="1.4E-45"/><stop stop-color="#ffffff" offset="2.8E-45"/><stop stop-color="#fcf4ed" offset="0.19"/><stop stop-color="#fce2d3" offset="0.52"/><stop stop-color="#f59f6c" offset="1.0"/></linearGradient></defs><path fill-rule="evenodd" d="m455.23624 82.39201l0 0c-0.8407593 0 -1.5223389 -0.6815796 -1.5223389 -1.5223465l0 -6.0891724l0 0c0 -0.4037552 0.16040039 -0.7909622 0.44589233 -1.0764618c0.28549194 -0.28549194 0.672699 -0.44587708 1.0764465 -0.44587708l38.467133 0c0.8407898 0 1.5223389 0.68157196 1.5223389 1.5223389l0 6.0891724c0 0.8407669 -0.6815491 1.5223465 -1.5223389 1.5223465z" fill="url(#p.8)"/><defs><linearGradient y2="70.28331108068758" x2="-53.94574266825967" y1="63.66431836032304" x1="-53.94571788473117" spreadMethod="pad" gradientTransform="matrix(0.0 -6.618992720410941 6.618992720410941 0.0 0.0 0.0)" gradientUnits="userSpaceOnUse" id="p.9"><stop stop-color="#bfbfbf" offset="0.0"/><stop stop-color="#10224a" offset="1.4E-45"/><stop stop-color="#ffffff" offset="2.8E-45"/><stop stop-color="#eeeff3" offset="0.19"/><stop stop-color="#d4d9e3" offset="0.52"/><stop stop-color="#8893af" offset="1.0"/></linearGradient></defs><path fill-rule="evenodd" d="m422.62732 357.06635l0 0c-0.68130493 0 -1.2336121 -0.5523071 -1.2336121 -1.2336426l0 -4.934326l0 0c0 -0.32717896 0.12997437 -0.6409607 0.3612976 -0.87228394c0.23135376 -0.23135376 0.5451355 -0.36132812 0.87231445 -0.36132812l41.34378 0c0.68130493 0 1.2336121 0.5523071 1.2336121 1.2336121l0 4.934326c0 0.68133545 -0.5523071 1.2336426 -1.2336121 1.2336426z" fill="url(#p.9)"/><defs><linearGradient y2="85.85552036978216" x2="-65.09507911591459" y1="80.58190456827951" x1="-65.09505967455773" spreadMethod="pad" gradientTransform="matrix(0.0 -5.273615801538469 5.273615801538469 0.0 0.0 0.0)" gradientUnits="userSpaceOnUse" id="p.10"><stop stop-color="#bfbfbf" offset="0.0"/><stop stop-color="#10224a" offset="1.4E-45"/><stop stop-color="#ffffff" offset="2.8E-45"/><stop stop-color="#eeeff3" offset="0.19"/><stop stop-color="#d4d9e3" offset="0.52"/><stop stop-color="#8893af" offset="1.0"/></linearGradient></defs><path fill-rule="evenodd" d="m425.85565 343.28632l0 0c-0.49575806 0 -0.89764404 -0.401886 -0.89764404 -0.89764404l0 -3.5905151l0 0c0 -0.23806763 0.094573975 -0.46640015 0.26290894 -0.6347351c0.16833496 -0.16833496 0.39666748 -0.26290894 0.6347351 -0.26290894l26.015717 0c0.49575806 0 0.89767456 0.401886 0.89767456 0.89764404l0 3.5905151c0 0.49575806 -0.4019165 0.89764404 -0.89767456 0.89764404z" fill="url(#p.10)"/><defs><linearGradient y2="63.471190065313884" x2="-67.17514212181518" y1="58.72569688288594" x1="-67.17512483783769" spreadMethod="pad" gradientTransform="matrix(0.0 -4.745493182459415 4.745493182459415 0.0 0.0 0.0)" gradientUnits="userSpaceOnUse" id="p.11"><stop stop-color="#bfbfbf" offset="0.0"/><stop stop-color="#10224a" offset="1.4E-45"/><stop stop-color="#ffffff" offset="2.8E-45"/><stop stop-color="#eeeff3" offset="0.19"/><stop stop-color="#d4d9e3" offset="0.52"/><stop stop-color="#8893af" offset="1.0"/></linearGradient></defs><path fill-rule="evenodd" d="m280.20474 318.7791l0 0c-0.8407593 0 -1.5223389 -0.6815796 -1.5223389 -1.5223389l0 -6.089203l0 0c0 -0.40374756 0.16040039 -0.7909546 0.44589233 -1.0764465c0.28549194 -0.28549194 0.672699 -0.44589233 1.0764465 -0.44589233l19.475006 0c0.8407898 0 1.5223389 0.6815796 1.5223389 1.5223389l0 6.089203c0 0.8407593 -0.6815491 1.5223389 -1.5223389 1.5223389z" fill="url(#p.11)"/><defs><linearGradient y2="52.12169384616054" x2="-39.85109978093506" y1="45.21397523266645" x1="-39.851073064843334" spreadMethod="pad" gradientTransform="matrix(0.0 -6.907718613545751 6.907718613545751 0.0 0.0 0.0)" gradientUnits="userSpaceOnUse" id="p.12"><stop stop-color="#bfbfbf" offset="0.0"/><stop stop-color="#10224a" offset="1.4E-45"/><stop stop-color="#ffffff" offset="2.8E-45"/><stop stop-color="#eeeff3" offset="0.19"/><stop stop-color="#d4d9e3" offset="0.52"/><stop stop-color="#8893af" offset="1.0"/></linearGradient></defs><path fill-rule="evenodd" d="m313.8478 275.28l0 0c-0.8407898 0 -1.5223389 -0.6815796 -1.5223389 -1.5223389l0 -6.0891724l0 0c0 -0.40374756 0.16036987 -0.7909546 0.44586182 -1.076477c0.28549194 -0.28549194 0.6727295 -0.44586182 1.076477 -0.44586182l44.671844 0c0.8407593 0 1.5223389 0.6815796 1.5223389 1.5223389l0 6.0891724c0 0.8407593 -0.6815796 1.5223389 -1.5223389 1.5223389z" fill="url(#p.12)"/><defs><linearGradient y2="44.927403738379546" x2="-32.0339145553005" y1="36.8082103761894" x1="-32.033886774493624" spreadMethod="pad" gradientTransform="matrix(0.0 -8.11919336223767 8.11919336223767 0.0 0.0 0.0)" gradientUnits="userSpaceOnUse" id="p.13"><stop stop-color="#bfbfbf" offset="0.0"/><stop stop-color="#10224a" offset="1.4E-45"/><stop stop-color="#ffffff" offset="2.8E-45"/><stop stop-color="#eeeff3" offset="0.19"/><stop stop-color="#d4d9e3" offset="0.52"/><stop stop-color="#8893af" offset="1.0"/></linearGradient></defs><path fill-rule="evenodd" d="m300.37537 260.08932l0 0c-0.8407593 0 -1.5223389 -0.6815796 -1.5223389 -1.5223389l0 -6.0891724l0 0c0 -0.40376282 0.16036987 -0.79096985 0.44586182 -1.0764618c0.28549194 -0.28549194 0.6727295 -0.44587708 1.076477 -0.44587708l62.876587 0c0.8407593 0 1.5223389 0.68156433 1.5223389 1.5223389l0 6.0891724c0 0.8407593 -0.6815796 1.5223389 -1.5223389 1.5223389z" fill="url(#p.13)"/><defs><linearGradient y2="55.601514512900145" x2="-23.697705033327658" y1="49.15854531897468" x1="-23.697682755284557" spreadMethod="pad" gradientTransform="matrix(0.0 -6.442969193963983 6.442969193963983 0.0 0.0 0.0)" gradientUnits="userSpaceOnUse" id="p.14"><stop stop-color="#bfbfbf" offset="0.0"/><stop stop-color="#10224a" offset="1.4E-45"/><stop stop-color="#ffffff" offset="2.8E-45"/><stop stop-color="#eeeff3" offset="0.19"/><stop stop-color="#d4d9e3" offset="0.52"/><stop stop-color="#8893af" offset="1.0"/></linearGradient></defs><path fill-rule="evenodd" d="m318.24936 152.68344l0 0c-0.8407593 0 -1.5223389 -0.6815796 -1.5223389 -1.5223541l0 -6.0891724l0 0c0 -0.40374756 0.16040039 -0.7909546 0.44589233 -1.0764618c0.28549194 -0.28549194 0.672699 -0.44587708 1.0764465 -0.44587708l38.467133 0c0.8407898 0 1.5223389 0.6815796 1.5223389 1.5223389l0 6.0891724c0 0.84077454 -0.6815491 1.5223541 -1.5223389 1.5223541z" fill="url(#p.14)"/><defs><linearGradient y2="43.478848515269135" x2="-21.17783137100878" y1="35.35965641584755" x1="-21.177801064669293" spreadMethod="pad" gradientTransform="matrix(0.0 -8.119192099478141 8.119192099478141 0.0 0.0 0.0)" gradientUnits="userSpaceOnUse" id="p.15"><stop stop-color="#bfbfbf" offset="0.0"/><stop stop-color="#10224a" offset="1.4E-45"/><stop stop-color="#ffffff" offset="2.8E-45"/><stop stop-color="#eeeff3" offset="0.19"/><stop stop-color="#d4d9e3" offset="0.52"/><stop stop-color="#8893af" offset="1.0"/></linearGradient></defs><path fill-rule="evenodd" d="m288.6142 171.94664l0 0c-0.8407593 0 -1.5223389 -0.68156433 -1.5223389 -1.5223389l0 -6.0891724l0 0c0 -0.40374756 0.16040039 -0.79096985 0.44589233 -1.0764618c0.28549194 -0.28549194 0.672699 -0.44587708 1.0764465 -0.44587708l62.876587 0c0.8407593 0 1.5223389 0.68156433 1.5223389 1.5223389l0 6.0891724c0 0.84077454 -0.6815796 1.5223389 -1.5223389 1.5223389z" fill="url(#p.15)"/><path fill-rule="evenodd" d="m347.90027 160.49208l0 0c0 -13.072189 11.767487 -23.669281 26.283447 -23.669281l0 0c14.515961 0 26.283478 10.597092 26.283478 23.669281l0 0c0 13.072189 -11.767517 23.669296 -26.283478 23.669296l0 0c-14.515961 0 -26.283447 -10.597107 -26.283447 -23.669296z" fill="#10224a"/><path fill-rule="evenodd" d="m347.90027 160.49208l0 0c0 -13.072189 11.767487 -23.669281 26.283447 -23.669281l0 0c14.515961 0 26.283478 10.597092 26.283478 23.669281l0 0c0 13.072189 -11.767517 23.669296 -26.283478 23.669296l0 0c-14.515961 0 -26.283447 -10.597107 -26.283447 -23.669296z" stroke-linecap="butt" stroke-linejoin="round" stroke-width="1.0" stroke="#000000"/><path fill-rule="evenodd" d="m453.71915 200.90111l0 0c0 -13.072189 11.767517 -23.669296 26.283478 -23.669296l0 0c14.515961 0 26.283478 10.597107 26.283478 23.669296l0 0c0 13.072174 -11.767517 23.669281 -26.283478 23.669281l0 0c-14.515961 0 -26.283478 -10.597107 -26.283478 -23.669281z" fill="#10224a"/><path fill-rule="evenodd" d="m453.71915 200.90111l0 0c0 -13.072189 11.767517 -23.669296 26.283478 -23.669296l0 0c14.515961 0 26.283478 10.597107 26.283478 23.669296l0 0c0 13.072174 -11.767517 23.669281 -26.283478 23.669281l0 0c-14.515961 0 -26.283478 -10.597107 -26.283478 -23.669281z" stroke-linecap="butt" stroke-linejoin="round" stroke-width="1.0" stroke="#000000"/><path fill-rule="evenodd" d="m355.59842 264.56485l0 0c0 -13.072189 11.767517 -23.669296 26.283478 -23.669296l0 0c14.515961 0 26.283447 10.597107 26.283447 23.669296l0 0c0 13.072174 -11.767487 23.669281 -26.283447 23.669281l0 0c-14.515961 0 -26.283478 -10.597107 -26.283478 -23.669281z" fill="#10224a"/><path fill-rule="evenodd" d="m355.59842 264.56485l0 0c0 -13.072189 11.767517 -23.669296 26.283478 -23.669296l0 0c14.515961 0 26.283447 10.597107 26.283447 23.669296l0 0c0 13.072174 -11.767487 23.669281 -26.283447 23.669281l0 0c-14.515961 0 -26.283478 -10.597107 -26.283478 -23.669281z" stroke-linecap="butt" stroke-linejoin="round" stroke-width="1.0" stroke="#000000"/><path fill-rule="evenodd" d="m562.6982 128.639l0 0c0 -12.419876 10.343262 -22.488182 23.102356 -22.488182l0 0c6.127136 0 12.003296 2.3692856 16.335815 6.5866394c4.3325195 4.217354 6.7665405 9.937309 6.7665405 15.901543l0 0c0 12.419891 -10.343262 22.48819 -23.102356 22.48819l0 0c-12.759094 0 -23.102356 -10.068298 -23.102356 -22.48819z" fill="#ea701d"/><path fill-rule="evenodd" d="m562.6982 128.639l0 0c0 -12.419876 10.343262 -22.488182 23.102356 -22.488182l0 0c6.127136 0 12.003296 2.3692856 16.335815 6.5866394c4.3325195 4.217354 6.7665405 9.937309 6.7665405 15.901543l0 0c0 12.419891 -10.343262 22.48819 -23.102356 22.48819l0 0c-12.759094 0 -23.102356 -10.068298 -23.102356 -22.48819z" stroke-linecap="butt" stroke-linejoin="round" stroke-width="1.0" stroke="#b45f06"/><path fill-rule="evenodd" d="m622.75854 184.58781l0 0c0 -13.072189 11.767517 -23.669296 26.283447 -23.669296l0 0c14.51593 0 26.283447 10.597107 26.283447 23.669296l0 0c0 13.072189 -11.767517 23.669281 -26.283447 23.669281l0 0c-14.51593 0 -26.283447 -10.597092 -26.283447 -23.669281z" fill="#ea701d"/><path fill-rule="evenodd" d="m622.75854 184.58781l0 0c0 -13.072189 11.767517 -23.669296 26.283447 -23.669296l0 0c14.51593 0 26.283447 10.597107 26.283447 23.669296l0 0c0 13.072189 -11.767517 23.669281 -26.283447 23.669281l0 0c-14.51593 0 -26.283447 -10.597092 -26.283447 -23.669281z" stroke-linecap="butt" stroke-linejoin="round" stroke-width="1.0" stroke="#b45f06"/><path fill-rule="evenodd" d="m539.38055 267.6485l0 0c0 -13.072189 11.767517 -23.669281 26.283508 -23.669281l0 0c14.51593 0 26.283447 10.597092 26.283447 23.669281l0 0c0 13.072205 -11.767517 23.669312 -26.283447 23.669312l0 0c-14.515991 0 -26.283508 -10.597107 -26.283508 -23.669312z" fill="#ea701d"/><path fill-rule="evenodd" d="m539.38055 267.6485l0 0c0 -13.072189 11.767517 -23.669281 26.283508 -23.669281l0 0c14.51593 0 26.283447 10.597092 26.283447 23.669281l0 0c0 13.072205 -11.767517 23.669312 -26.283447 23.669312l0 0c-14.515991 0 -26.283508 -10.597107 -26.283508 -23.669312z" stroke-linecap="butt" stroke-linejoin="round" stroke-width="1.0" stroke="#b45f06"/><path fill-rule="evenodd" d="m298.85303 210.1593l0 0c0 -9.106171 8.594727 -16.48819 19.196838 -16.48819l0 0c10.602142 0 19.196838 7.382019 19.196838 16.48819l0 0c0 9.106186 -8.594696 16.48819 -19.196838 16.48819l0 0c-10.602112 0 -19.196838 -7.382004 -19.196838 -16.48819z" fill="#10224a"/><path fill-rule="evenodd" d="m298.85303 210.1593l0 0c0 -9.106171 8.594727 -16.48819 19.196838 -16.48819l0 0c10.602142 0 19.196838 7.382019 19.196838 16.48819l0 0c0 9.106186 -8.594696 16.48819 -19.196838 16.48819l0 0c-10.602112 0 -19.196838 -7.382004 -19.196838 -16.48819z" stroke-linecap="butt" stroke-linejoin="round" stroke-width="1.0" stroke="#000000"/><path fill-rule="evenodd" d="m298.85303 314.18835l0 0c0 -9.106171 8.594727 -16.48819 19.196838 -16.48819l0 0c10.602142 0 19.196838 7.382019 19.196838 16.48819l0 0c0 9.106171 -8.594696 16.48819 -19.196838 16.48819l0 0c-10.602112 0 -19.196838 -7.382019 -19.196838 -16.48819z" fill="#10224a"/><path fill-rule="evenodd" d="m298.85303 314.18835l0 0c0 -9.106171 8.594727 -16.48819 19.196838 -16.48819l0 0c10.602142 0 19.196838 7.382019 19.196838 16.48819l0 0c0 9.106171 -8.594696 16.48819 -19.196838 16.48819l0 0c-10.602112 0 -19.196838 -7.382019 -19.196838 -16.48819z" stroke-linecap="butt" stroke-linejoin="round" stroke-width="1.0" stroke="#000000"/><path fill-rule="evenodd" d="m448.09448 340.56274l0 0c0 -9.106171 7.917877 -16.48819 17.685059 -16.48819l0 0c9.767151 0 17.685028 7.382019 17.685028 16.48819l0 0c0 9.106171 -7.917877 16.48819 -17.685028 16.48819l0 0c-9.767181 0 -17.685059 -7.382019 -17.685059 -16.48819z" fill="#10224a"/><path fill-rule="evenodd" d="m448.09448 340.56274l0 0c0 -9.106171 7.917877 -16.48819 17.685059 -16.48819l0 0c9.767151 0 17.685028 7.382019 17.685028 16.48819l0 0c0 9.106171 -7.917877 16.48819 -17.685028 16.48819l0 0c-9.767181 0 -17.685059 -7.382019 -17.685059 -16.48819z" stroke-linecap="butt" stroke-linejoin="round" stroke-width="1.0" stroke="#000000"/><path fill-rule="evenodd" d="m246.63255 232.74867l0 0c0 -7.0796814 6.6487427 -12.818893 14.850388 -12.818893l0 0c8.20166 0 14.850403 5.739212 14.850403 12.818893l0 0c0 7.0796814 -6.6487427 12.818909 -14.850403 12.818909l0 0c-8.201645 0 -14.850388 -5.7392273 -14.850388 -12.818909z" fill="#8893af"/><path fill-rule="evenodd" d="m246.63255 232.74867l0 0c0 -7.0796814 6.6487427 -12.818893 14.850388 -12.818893l0 0c8.20166 0 14.850403 5.739212 14.850403 12.818893l0 0c0 7.0796814 -6.6487427 12.818909 -14.850403 12.818909l0 0c-8.201645 0 -14.850388 -5.7392273 -14.850388 -12.818909z" stroke-linecap="butt" stroke-linejoin="round" stroke-width="1.0" stroke="#8893af"/><path fill-rule="evenodd" d="m265.58005 128.65344l0 0c0 -5.1923523 4.8155823 -9.401581 10.75592 -9.401581l0 0c5.9403076 0 10.75589 4.2092285 10.75589 9.401581l0 0c0 5.192337 -4.8155823 9.401566 -10.75589 9.401566l0 0c-5.940338 0 -10.75592 -4.2092285 -10.75592 -9.401566z" fill="#8893af"/><path fill-rule="evenodd" d="m265.58005 128.65344l0 0c0 -5.1923523 4.8155823 -9.401581 10.75592 -9.401581l0 0c5.9403076 0 10.75589 4.2092285 10.75589 9.401581l0 0c0 5.192337 -4.8155823 9.401566 -10.75589 9.401566l0 0c-5.940338 0 -10.75592 -4.2092285 -10.75592 -9.401566z" stroke-linecap="butt" stroke-linejoin="round" stroke-width="1.0" stroke="#8893af"/><path fill-rule="evenodd" d="m402.87402 73.887024l0 0c0 -6.427376 6.338501 -11.637798 14.157471 -11.637798l0 0c7.8189697 0 14.157471 5.2104225 14.157471 11.637798l0 0c0 6.427376 -6.338501 11.6377945 -14.157471 11.6377945l0 0c-7.8189697 0 -14.157471 -5.2104187 -14.157471 -11.6377945z" fill="#f59f6c"/><path fill-rule="evenodd" d="m392.76895 177.2288l60.944885 23.685028" fill-opacity="0.0" fill="#000000"/><path fill-rule="evenodd" d="m392.76895 177.2288l60.944885 23.685028" stroke-linecap="butt" stroke-linejoin="round" stroke-width="4.0" stroke="#10224a"/><path fill-rule="evenodd" d="m355.5985 177.2288l-23.968506 21.259842" fill-opacity="0.0" fill="#000000"/><path fill-rule="evenodd" d="m355.5985 177.2288l-23.968506 21.259842" stroke-linecap="butt" stroke-linejoin="round" stroke-width="4.0" stroke="#10224a"/><path fill-rule="evenodd" d="m331.62408 221.81822l31.685059 26.015747" fill-opacity="0.0" fill="#000000"/><path fill-rule="evenodd" d="m331.62408 221.81822l31.685059 26.015747" stroke-linecap="butt" stroke-linejoin="round" stroke-width="4.0" stroke="#10224a"/><path fill-rule="evenodd" d="m400.4671 247.82812l60.944885 -30.204712" fill-opacity="0.0" fill="#000000"/><path fill-rule="evenodd" d="m400.4671 247.82812l60.944885 -30.204712" stroke-linecap="butt" stroke-linejoin="round" stroke-width="4.0" stroke="#10224a"/><path fill-rule="evenodd" d="m602.13635 144.54057l28.314941 23.307083" fill-opacity="0.0" fill="#000000"/><path fill-rule="evenodd" d="m602.13635 144.54057l28.314941 23.307083" stroke-linecap="butt" stroke-linejoin="round" stroke-width="4.0" stroke="#ea701d"/><path fill-rule="evenodd" d="m630.4568 201.32452l-46.204712 49.574814" fill-opacity="0.0" fill="#000000"/><path fill-rule="evenodd" d="m630.4568 201.32452l-46.204712 49.574814" stroke-linecap="butt" stroke-linejoin="round" stroke-width="4.0" stroke="#ea701d"/><path fill-rule="evenodd" d="m498.58783 217.63782l48.503967 33.259842" fill-opacity="0.0" fill="#000000"/><path fill-rule="evenodd" d="m498.58783 217.63782l48.503967 33.259842" stroke-linecap="butt" stroke-linejoin="round" stroke-width="4.0" stroke="#ea701d"/><path fill-rule="evenodd" d="m483.46457 340.56274l63.62204 -56.188965" fill-opacity="0.0" fill="#000000"/><path fill-rule="evenodd" d="m483.46457 340.56274l63.62204 -56.188965" stroke-linecap="butt" stroke-linejoin="round" stroke-width="4.0" stroke="#10224a"/><path fill-rule="evenodd" d="m400.4671 281.30157l47.62204 59.275574" fill-opacity="0.0" fill="#000000"/><path fill-rule="evenodd" d="m400.4671 281.30157l47.62204 59.275574" stroke-linecap="butt" stroke-linejoin="round" stroke-width="4.0" stroke="#10224a"/><path fill-rule="evenodd" d="m363.29666 281.30157l-31.685028 21.228333" fill-opacity="0.0" fill="#000000"/><path fill-rule="evenodd" d="m363.29666 281.30157l-31.685028 21.228333" stroke-linecap="butt" stroke-linejoin="round" stroke-width="4.0" stroke="#10224a"/><path fill-rule="evenodd" d="m210.87927 264.57095l0 0c0 -5.1923523 4.8155823 -9.401596 10.755905 -9.401596l0 0c5.940323 0 10.755905 4.209244 10.755905 9.401596l0 0c0 5.192322 -4.8155823 9.40155 -10.755905 9.40155l0 0c-5.940323 0 -10.755905 -4.2092285 -10.755905 -9.40155z" fill="#8893af"/><path fill-rule="evenodd" d="m210.87927 264.57095l0 0c0 -5.1923523 4.8155823 -9.401596 10.755905 -9.401596l0 0c5.940323 0 10.755905 4.209244 10.755905 9.401596l0 0c0 5.192322 -4.8155823 9.40155 -10.755905 9.40155l0 0c-5.940323 0 -10.755905 -4.2092285 -10.755905 -9.40155z" stroke-linecap="butt" stroke-linejoin="round" stroke-width="1.0" stroke="#8893af"/><path fill-rule="evenodd" d="m353.01312 368.73816l0 0c0 -4.1138916 3.7156982 -7.448822 8.299225 -7.448822l0 0c4.5835266 0 8.299194 3.3349304 8.299194 7.448822l0 0c0 4.113861 -3.7156677 7.4487915 -8.299194 7.4487915l0 0c-4.5835266 0 -8.299225 -3.3349304 -8.299225 -7.4487915z" fill="#8893af"/><path fill-rule="evenodd" d="m353.01312 368.73816l0 0c0 -4.1138916 3.7156982 -7.448822 8.299225 -7.448822l0 0c4.5835266 0 8.299194 3.3349304 8.299194 7.448822l0 0c0 4.113861 -3.7156677 7.4487915 -8.299194 7.4487915l0 0c-4.5835266 0 -8.299225 -3.3349304 -8.299225 -7.4487915z" stroke-linecap="butt" stroke-linejoin="round" stroke-width="1.0" stroke="#8893af"/><path fill-rule="evenodd" d="m252.13124 290.7155l0 0c0 -3.2615051 3.2221375 -5.905487 7.1968536 -5.905487l0 0c3.974701 0 7.1968384 2.643982 7.1968384 5.905487l0 0c0 3.2615356 -3.2221375 5.9055176 -7.1968384 5.9055176l0 0c-3.9747162 0 -7.1968536 -2.643982 -7.1968536 -5.9055176z" fill="#8893af"/><path fill-rule="evenodd" d="m252.13124 290.7155l0 0c0 -3.2615051 3.2221375 -5.905487 7.1968536 -5.905487l0 0c3.974701 0 7.1968384 2.643982 7.1968384 5.905487l0 0c0 3.2615356 -3.2221375 5.9055176 -7.1968384 5.9055176l0 0c-3.9747162 0 -7.1968536 -2.643982 -7.1968536 -5.9055176z" stroke-linecap="butt" stroke-linejoin="round" stroke-width="1.0" stroke="#8893af"/><path fill-rule="evenodd" d="m237.73753 341.80032l0 0c0 -3.2615356 3.2221375 -5.9055176 7.1968536 -5.9055176l0 0c3.974701 0 7.1968536 2.643982 7.1968536 5.9055176l0 0c0 3.2615356 -3.2221527 5.9055176 -7.1968536 5.9055176l0 0c-3.9747162 0 -7.1968536 -2.643982 -7.1968536 -5.9055176z" fill="#8893af"/><path fill-rule="evenodd" d="m237.73753 341.80032l0 0c0 -3.2615356 3.2221375 -5.9055176 7.1968536 -5.9055176l0 0c3.974701 0 7.1968536 2.643982 7.1968536 5.9055176l0 0c0 3.2615356 -3.2221527 5.9055176 -7.1968536 5.9055176l0 0c-3.9747162 0 -7.1968536 -2.643982 -7.1968536 -5.9055176z" stroke-linecap="butt" stroke-linejoin="round" stroke-width="1.0" stroke="#8893af"/><path fill-rule="evenodd" d="m498.58783 184.16438l70.86615 -39.62204" fill-opacity="0.0" fill="#000000"/><path fill-rule="evenodd" d="m498.58783 184.16438l70.86615 -39.62204" stroke-linecap="butt" stroke-linejoin="round" stroke-width="4.0" stroke="#10224a"/><path fill-rule="evenodd" d="m486.96982 86.59596l0 0c0 -10.489067 9.172882 -18.992126 20.48819 -18.992126l0 0c11.315308 0 20.48816 8.503059 20.48816 18.992126l0 0c0 10.489059 -9.172852 18.992119 -20.48816 18.992119l0 0c-11.315308 0 -20.48819 -8.503059 -20.48819 -18.992119z" fill="#ea701d"/><path fill-rule="evenodd" d="m486.96982 86.59596l0 0c0 -10.489067 9.172882 -18.992126 20.48819 -18.992126l0 0c11.315308 0 20.48816 8.503059 20.48816 18.992126l0 0c0 10.489059 -9.172852 18.992119 -20.48816 18.992119l0 0c-11.315308 0 -20.48819 -8.503059 -20.48819 -18.992119z" stroke-linecap="butt" stroke-linejoin="round" stroke-width="1.0" stroke="#b45f06"/><path fill-rule="evenodd" d="m527.94617 86.59596l41.51184 26.141731" fill-opacity="0.0" fill="#000000"/><path fill-rule="evenodd" d="m527.94617 86.59596l41.51184 26.141731" stroke-linecap="butt" stroke-linejoin="round" stroke-width="4.0" stroke="#ea701d"/><path fill-rule="evenodd" d="m366.98688 93.74471l0 0c0 -3.2615204 3.2221375 -5.90551 7.1968384 -5.90551l0 0c3.9747314 0 7.196869 2.6439896 7.196869 5.90551l0 0c0 3.261528 -3.2221375 5.9055176 -7.196869 5.9055176l0 0c-3.974701 0 -7.1968384 -2.6439896 -7.1968384 -5.9055176z" fill="#f59f6c"/><path fill-rule="evenodd" d="m370.12073 51.033886l0 0c0 -3.2615242 3.2221375 -5.90551 7.196869 -5.90551l0 0c3.974701 0 7.1968384 2.6439857 7.1968384 5.90551l0 0c0 3.2615242 -3.2221375 5.905514 -7.1968384 5.905514l0 0c-3.9747314 0 -7.196869 -2.6439896 -7.196869 -5.905514z" fill="#f59f6c"/></g></svg>
